<svg width="72" height="72" viewBox="0 0 72 72" fill="none" xmlns="http://www.w3.org/2000/svg">
<rect width="72" height="72" rx="36" fill="white"/>
<path d="M52 14.29H18C15.7909 14.29 14 16.0808 14 18.29V51.71C14 53.9191 15.7909 55.71 18 55.71H52C54.2091 55.71 56 53.9191 56 51.71V18.29C56 16.0808 54.2091 14.29 52 14.29Z" fill="#5DDFA9"/>
<path d="M35.36 14.29V55.71H18C15.79 55.71 14 53.92 14 51.71L14 18.29C14 16.08 15.79 14.29 18 14.29L35.36 14.29Z" fill="#83F8C7"/>
<path d="M48.36 28.11H22.36C21.2554 28.11 20.36 29.0054 20.36 30.11V46.73C20.36 47.8346 21.2554 48.73 22.36 48.73H48.36C49.4646 48.73 50.36 47.8346 50.36 46.73V30.11C50.36 29.0054 49.4646 28.11 48.36 28.11Z" fill="#0043A6"/>
<path d="M43.8 29.61H40.05V25.86H30.67V29.61H26.92V25.86C26.92 23.79 28.6 22.11 30.67 22.11H40.05C42.12 22.11 43.8 23.79 43.8 25.86V29.61Z" fill="#0050C7"/>
<path d="M48.36 28.11H22.36C21.2554 28.11 20.36 29.0054 20.36 30.11V38.31C20.36 39.4146 21.2554 40.31 22.36 40.31H48.36C49.4646 40.31 50.36 39.4146 50.36 38.31V30.11C50.36 29.0054 49.4646 28.11 48.36 28.11Z" fill="#0866F5"/>
<path d="M48.36 28.11H22.36C21.2554 28.11 20.36 29.0054 20.36 30.11V46.73C20.36 47.8346 21.2554 48.73 22.36 48.73H48.36C49.4646 48.73 50.36 47.8346 50.36 46.73V30.11C50.36 29.0054 49.4646 28.11 48.36 28.11Z" fill="#0043A6"/>
<path d="M22.36 28.11H35.36V48.73H22.36C21.26 48.73 20.36 47.83 20.36 46.73V30.11C20.36 29.01 21.26 28.11 22.36 28.11Z" fill="#0050C7"/>
<path d="M43.8 29.61H40.05V25.86H30.67V29.61H26.92V25.86C26.92 23.79 28.6 22.11 30.67 22.11H40.05C42.12 22.11 43.8 23.79 43.8 25.86V29.61Z" fill="#0050C7"/>
<path d="M35.36 22.11H30.67C28.6 22.11 26.92 23.79 26.92 25.86V29.61H30.67V25.86H35.36V22.11Z" fill="#0050C7"/>
<path d="M22.36 28.11H48.36C49.46 28.11 50.36 29.01 50.36 30.11V36.31C50.36 38.52 48.57 40.31 46.36 40.31H24.36C22.15 40.31 20.36 38.52 20.36 36.31V30.11C20.36 29.01 21.26 28.11 22.36 28.11Z" fill="#0866F5"/>
<path d="M22.36 28.11H35.36V40.31H24.36C22.15 40.31 20.36 38.52 20.36 36.31V30.11C20.36 29.01 21.26 28.11 22.36 28.11Z" fill="#378EFF"/>
<path d="M28.47 37.5H28.46C27.4272 37.5 26.59 38.3372 26.59 39.37V41.26C26.59 42.2928 27.4272 43.13 28.46 43.13H28.47C29.5027 43.13 30.34 42.2928 30.34 41.26V39.37C30.34 38.3372 29.5027 37.5 28.47 37.5Z" fill="white"/>
<path d="M42.27 37.5H42.26C41.2272 37.5 40.39 38.3372 40.39 39.37V41.25C40.39 42.2828 41.2272 43.12 42.26 43.12H42.27C43.3028 43.12 44.14 42.2828 44.14 41.25V39.37C44.14 38.3372 43.3028 37.5 42.27 37.5Z" fill="white"/>
</svg>
